<svg width="512" height="512" xmlns="http://www.w3.org/2000/svg">
 <g>
  <g id="svg_42">
   <path id="svg_43" fill="#FFFFFF" d="m395.066329,205.333703l-9.387,0c-3.533,0.009 -6.69,-2.193 -7.902,-5.513c-1.041,-2.731 -2.159,-5.402 -3.362,-8.047c-1.493,-3.217 -0.811,-7.023 1.707,-9.523l6.69,-6.699c9.933,-10.018 9.916,-26.18 -0.043,-36.173l-24.115,-24.115c-10.01,-9.95 -26.172,-9.95 -36.181,0l-6.69,6.682c-2.5,2.509 -6.306,3.191 -9.523,1.707c-2.645,-1.203 -5.316,-2.321 -8.055,-3.413c-3.337,-1.203 -5.547,-4.378 -5.538,-7.919l0,-9.387c0,-14.14 -11.46,-25.6 -25.6,-25.6l-34.134,0c-14.14,0 -25.6,11.46 -25.6,25.6l0,9.387c0.009,3.533 -2.193,6.69 -5.513,7.902c-2.731,1.041 -5.402,2.159 -8.047,3.362c-3.217,1.485 -7.023,0.802 -9.523,-1.707l-6.699,-6.69c-10.01,-9.941 -26.163,-9.941 -36.173,0l-24.115,24.192c-9.95,10.01 -9.95,26.172 0,36.181l6.682,6.69c2.517,2.5 3.2,6.306 1.707,9.523c-1.203,2.645 -2.321,5.316 -3.371,8.055c-1.22,3.337 -4.412,5.538 -7.962,5.504l-9.386,0c-14.14,0 -25.6,11.46 -25.6,25.6l0,34.134c0,14.14 11.46,25.6 25.6,25.6l9.387,0c3.533,-0.009 6.69,2.193 7.902,5.513c1.041,2.731 2.159,5.402 3.362,8.047c1.493,3.217 0.811,7.023 -1.707,9.523l-6.69,6.699c-9.941,10.01 -9.941,26.163 0,36.173l24.115,24.115c10.01,9.95 26.172,9.95 36.181,0l6.69,-6.682c2.5,-2.509 6.306,-3.191 9.523,-1.707c2.645,1.203 5.316,2.321 8.055,3.413c3.354,1.186 5.589,4.361 5.581,7.919l0,9.387c0,14.14 11.46,25.6 25.6,25.6l34.133,0c14.14,0 25.6,-11.46 25.6,-25.6l0,-9.387c-0.009,-3.533 2.193,-6.69 5.513,-7.902c2.731,-1.041 5.402,-2.159 8.047,-3.362c3.217,-1.485 7.023,-0.802 9.523,1.707l6.699,6.69c10.018,9.924 26.172,9.907 36.173,-0.043l24.115,-24.115c9.95,-10.01 9.95,-26.172 0,-36.181l-6.682,-6.69c-2.517,-2.5 -3.2,-6.306 -1.707,-9.523c1.203,-2.645 2.321,-5.316 3.413,-8.055c1.203,-3.337 4.378,-5.547 7.919,-5.538l9.387,0c14.14,0 25.6,-11.46 25.6,-25.6l0,-34.133c0.001,-14.141 -11.459,-25.601 -25.599,-25.601zm8.534,59.733c0,4.71 -3.823,8.533 -8.533,8.533l-9.387,0c-10.607,0.043 -20.105,6.596 -23.893,16.503c-0.905,2.389 -1.886,4.745 -2.935,7.057c-4.386,9.685 -2.355,21.069 5.12,28.638l6.673,6.682c3.337,3.328 3.337,8.73 0.009,12.066l-0.009,0.009l-24.115,24.115c-3.328,3.328 -8.73,3.328 -12.066,0l-6.69,-6.682c-7.561,-7.475 -18.953,-9.515 -28.638,-5.12c-2.313,1.05 -4.668,2.031 -7.04,2.935c-9.899,3.789 -16.452,13.278 -16.495,23.876l0,9.387c0,4.71 -3.823,8.533 -8.533,8.533l-34.135,0c-4.71,0 -8.533,-3.823 -8.533,-8.533l0,-9.387c-0.043,-10.607 -6.596,-20.105 -16.503,-23.893c-2.389,-0.905 -4.745,-1.886 -7.057,-2.935c-9.685,-4.386 -21.069,-2.347 -28.638,5.12l-6.682,6.673c-3.328,3.337 -8.73,3.337 -12.066,0.009l-0.009,-0.009l-24.115,-24.09c-3.328,-3.328 -3.328,-8.738 0,-12.066l6.682,-6.69c7.475,-7.569 9.506,-18.953 5.12,-28.638c-1.05,-2.313 -2.031,-4.668 -2.935,-7.04c-3.78,-9.907 -13.269,-16.478 -23.876,-16.521l-9.388,0c-4.71,0 -8.533,-3.823 -8.533,-8.533l0,-34.133c0,-4.71 3.823,-8.533 8.533,-8.533l9.387,0c10.607,-0.043 20.105,-6.596 23.893,-16.503c0.905,-2.389 1.886,-4.745 2.935,-7.057c4.386,-9.685 2.355,-21.069 -5.12,-28.638l-6.707,-6.682c-3.337,-3.328 -3.337,-8.73 -0.009,-12.066l0.009,-0.009l24.115,-24.115c3.337,-3.328 8.73,-3.328 12.066,0l6.69,6.682c7.561,7.475 18.953,9.515 28.638,5.12c2.313,-1.05 4.668,-2.031 7.04,-2.935c9.916,-3.78 16.478,-13.269 16.529,-23.876l0,-9.387c0,-4.71 3.823,-8.533 8.533,-8.533l34.133,0c4.71,0 8.533,3.823 8.533,8.533l0,9.387c0.043,10.607 6.596,20.105 16.503,23.893c2.389,0.905 4.745,1.886 7.057,2.935c9.685,4.395 21.077,2.355 28.638,-5.12l6.682,-6.673c3.345,-3.311 8.73,-3.311 12.075,0l24.115,24.115c3.328,3.328 3.328,8.738 0,12.066l-6.682,6.69c-7.475,7.569 -9.506,18.953 -5.12,28.638c1.05,2.313 2.031,4.668 2.935,7.04c3.789,9.899 13.278,16.452 23.876,16.495l9.387,0c4.71,0 8.533,3.823 8.533,8.533l0,34.134l0.003,0z"/>
   <path id="svg_44" fill="#FFFFFF" d="m326.629329,244.586703c-0.085,-2.048 -0.23,-4.087 -0.478,-6.118c-0.273,-2.185 -0.597,-4.352 -1.05,-6.477c-0.299,-1.391 -0.691,-2.765 -1.067,-4.147c-0.478,-1.758 -1.015,-3.49 -1.613,-5.197c-0.418,-1.186 -0.853,-2.364 -1.297,-3.533c-1.101,-2.731 -2.355,-5.402 -3.763,-7.987c-0.111,-0.196 -0.179,-0.41 -0.29,-0.606c-2.219,-3.951 -4.787,-7.697 -7.68,-11.187c-0.247,-0.307 -0.529,-0.597 -0.785,-0.896c-1.178,-1.391 -2.389,-2.739 -3.661,-4.028c-0.666,-0.691 -1.365,-1.34 -2.065,-2.005c-0.853,-0.794 -1.707,-1.579 -2.56,-2.33c-1.033,-0.896 -2.091,-1.766 -3.166,-2.611l-1.399,-1.041c-13.201,-9.89 -29.261,-15.232 -45.756,-15.223c-0.853,0 -1.707,0.128 -2.56,0.162c-1.818,0.051 -3.644,0.154 -5.478,0.341c-0.964,0.102 -1.937,0.213 -2.901,0.35c-2.782,0.367 -5.538,0.879 -8.269,1.545c-41.088,10.615 -65.792,52.531 -55.177,93.628c6.997,27.076 28.151,48.213 55.236,55.185c0.137,0 0.282,0.043 0.427,0.077c2.944,0.734 5.931,1.306 8.943,1.707c1.988,0.247 3.977,0.299 5.973,0.393c1.331,0.068 2.56,0.265 3.951,0.265c2.432,0 4.958,-0.162 7.535,-0.418c0.273,0 0.546,-0.077 0.853,-0.111c2.074,-0.23 4.173,-0.538 6.315,-0.964c0.853,-0.162 1.647,-0.375 2.466,-0.563c1.502,-0.35 2.995,-0.717 4.531,-1.169c1.195,-0.358 2.355,-0.777 3.524,-1.186c1.169,-0.41 2.381,-0.853 3.593,-1.314s2.227,-0.99 3.328,-1.502c1.434,-0.657 2.859,-1.306 4.267,-2.074l0.051,0c7.962,-4.267 15.317,-9.574 21.871,-15.795c1.766,-1.655 3.311,-3.533 4.574,-5.598c6.665,-10.675 11.034,-22.622 12.851,-35.072c0.239,-1.647 0.452,-3.294 0.58,-4.975c0.119,-1.545 0.205,-3.081 0.239,-4.617c0,-0.486 0.068,-0.947 0.068,-1.434c0.01,-1.205 -0.11,-2.314 -0.161,-3.475zm-91.622,-54.443c4.898,-1.237 9.941,-1.869 14.993,-1.877c2.441,0.017 4.873,0.179 7.296,0.495c0.649,0.077 1.289,0.196 1.929,0.29c1.843,0.29 3.669,0.657 5.47,1.118c0.589,0.154 1.178,0.29 1.758,0.452c4.54,1.306 8.909,3.149 13.013,5.478c0.657,0.384 1.297,0.785 1.946,1.186c1.348,0.853 2.654,1.707 3.942,2.679c0.691,0.503 1.391,0.998 2.057,1.536c1.673,1.34 3.277,2.765 4.804,4.267c0.606,0.614 1.161,1.289 1.749,1.929c0.981,1.067 1.937,2.159 2.85,3.311c0.631,0.794 1.237,1.613 1.835,2.441c0.853,1.229 1.707,2.509 2.475,3.806c0.427,0.708 0.853,1.399 1.289,2.125c1.101,2.022 2.082,4.113 2.935,6.255c0.341,0.853 0.631,1.707 0.939,2.56c0.555,1.57 1.033,3.157 1.451,4.762c0.213,0.853 0.452,1.613 0.631,2.441c0.495,2.304 0.862,4.642 1.084,6.989c0.051,0.623 0.051,1.254 0.094,1.877c0.119,1.963 0.154,3.934 0.077,5.914c0,0.708 -0.06,1.417 -0.102,2.116c-0.154,2.065 -0.418,4.13 -0.768,6.204c-3.191,17.741 -14.208,33.101 -29.986,41.813c-1.058,0.555 -2.099,1.075 -3.14,1.553l-0.708,0.341c-4.958,2.253 -10.189,3.831 -15.565,4.71c-0.375,0.06 -0.759,0.128 -1.143,0.179c-1.067,0.154 -2.116,0.282 -3.157,0.375c-1.374,0.119 -2.756,0.188 -4.164,0.213c-0.597,0 -1.186,0 -1.783,0c-2.022,-0.026 -4.036,-0.145 -6.042,-0.375l-1.024,-0.119c-2.347,-0.307 -4.676,-0.742 -6.972,-1.314c-31.957,-8.183 -51.234,-40.721 -43.059,-72.678c5.402,-21.12 21.888,-37.615 42.999,-43.042l-0.003,-0.01z"/>
  </g>
 </g>
</svg>